<svg width="12" height="10" viewBox="0 0 12 10" fill="none" xmlns="http://www.w3.org/2000/svg">
    <path d="M10.1584 1.18492C9.38049 0.827847 8.5595 0.573229 7.71602 0.42744C7.70832 0.425942 7.70035 0.426926 7.69325 0.430251C7.68615 0.433576 7.68029 0.439069 7.67652 0.44594C7.57152 0.633434 7.45452 0.878427 7.37253 1.07092C6.46327 0.932817 5.53837 0.932817 4.62911 1.07092C4.53785 0.857078 4.43486 0.648434 4.32062 0.44594C4.31668 0.439223 4.31079 0.43386 4.30374 0.430557C4.29669 0.427254 4.2888 0.426167 4.28112 0.42744C3.43764 0.572436 2.61616 0.827429 1.83869 1.18492C1.8321 1.18768 1.82652 1.19239 1.82269 1.19842C0.266733 3.52285 -0.159755 5.78979 0.0497389 8.02822C0.0502761 8.03377 0.0519254 8.03915 0.0545884 8.04405C0.0572514 8.04894 0.0608734 8.05325 0.0652384 8.05672C0.97101 8.7278 1.98424 9.24008 3.06165 9.57168C3.06924 9.57395 3.07735 9.57382 3.08486 9.57132C3.09238 9.56881 3.09894 9.56405 3.10365 9.55768C3.33464 9.24269 3.54064 8.9102 3.71713 8.56071C3.71958 8.5559 3.72098 8.55063 3.72123 8.54524C3.72148 8.53986 3.72058 8.53448 3.7186 8.52947C3.71661 8.52445 3.71358 8.51992 3.70971 8.51617C3.70583 8.51242 3.70121 8.50953 3.69613 8.50771C3.37285 8.384 3.05988 8.23487 2.76016 8.06172C2.75471 8.05848 2.75014 8.05397 2.74683 8.04857C2.74352 8.04317 2.74157 8.03704 2.74116 8.03072C2.74076 8.02441 2.74192 8.0181 2.74453 8.01235C2.74715 8.00659 2.75114 8.00157 2.75616 7.99772C2.81916 7.95072 2.88216 7.90172 2.94216 7.85173C2.94751 7.84746 2.95392 7.84474 2.96071 7.84386C2.96749 7.84298 2.97439 7.84397 2.98065 7.84673C4.9446 8.7432 7.07054 8.7432 9.01148 7.84673C9.01779 7.84381 9.0248 7.84273 9.0317 7.84362C9.0386 7.8445 9.0451 7.84731 9.05048 7.85173C9.11048 7.90072 9.17348 7.95072 9.23697 7.99772C9.24195 8.00149 9.24592 8.00643 9.24854 8.01209C9.25115 8.01776 9.25233 8.02399 9.25197 8.03022C9.25175 8.03654 9.24999 8.0427 9.24686 8.04819C9.24372 8.05368 9.2393 8.05832 9.23397 8.06172C8.93448 8.23622 8.62149 8.38521 8.2975 8.50671C8.28979 8.5095 8.28319 8.5147 8.27869 8.52155C8.27418 8.5284 8.27201 8.53652 8.2725 8.54471C8.273 8.55071 8.2745 8.55571 8.277 8.56071C8.457 8.9097 8.66299 9.24169 8.88948 9.55718C8.89419 9.56355 8.90075 9.56831 8.90827 9.57082C8.91578 9.57332 8.92389 9.57345 8.93148 9.57118C10.0107 9.2406 11.0256 8.72826 11.9324 8.05622C11.9368 8.0531 11.9405 8.04908 11.9433 8.04443C11.946 8.03977 11.9478 8.03459 11.9484 8.02922C12.1984 5.4408 11.5294 3.19236 10.1739 1.19942C10.1708 1.19267 10.1653 1.18732 10.1584 1.18442V1.18492ZM4.01012 6.66476C3.41914 6.66476 2.93166 6.12228 2.93166 5.4553C2.93166 4.78881 3.40964 4.24583 4.01012 4.24583C4.61511 4.24583 5.09809 4.79381 5.08859 5.4558C5.08859 6.12228 4.61061 6.66476 4.01012 6.66476ZM7.99751 6.66476C7.40603 6.66476 6.91904 6.12228 6.91904 5.4553C6.91904 4.78881 7.39653 4.24583 7.99751 4.24583C8.60249 4.24583 9.08548 4.79381 9.07598 5.4558C9.07598 6.12228 8.60299 6.66476 7.99751 6.66476Z" fill="white"/>
</svg>
