<svg width="64" height="64" viewBox="0 0 64 49" fill="none" xmlns="http://www.w3.org/2000/svg">
<path fill-rule="evenodd" clip-rule="evenodd" d="M21.7554 0.651788C17.7946 1.48358 13.664 2.77596 10.5856 4.14679C8.37716 5.13017 3.54107 14.9165 1.69578 22.1366C0.237191 27.8434 -0.502265 38.3977 0.39299 40.7307C0.684013 41.489 7.71307 45.5427 11.4293 47.0954C16.1341 49.061 16.311 49.0717 17.3932 47.4523C19.6231 44.1152 19.8861 43.399 19.0193 43.0232C16.3517 41.8668 14.6249 40.8566 14.7523 40.5272C15.0445 39.7721 15.7552 39.6973 17.1075 40.2795C26.0874 44.1447 36.8129 44.2384 45.8087 40.5304C47.8663 39.6822 47.9034 39.6776 48.4805 40.2065C49.134 40.8055 48.1174 41.5309 44.5923 42.9803C43.6837 43.354 43.7269 43.5292 45.3971 46.239C47.2726 49.2821 46.8881 49.2246 51.8741 47.2074C55.65 45.6797 62.9626 41.4798 63.2016 40.7017C63.3474 40.2267 63.5249 37.1796 63.5249 35.1508C63.5249 24.9594 60.7535 15.5387 55.082 6.45093C53.6372 4.13576 51.3753 3.00761 44.8737 1.35914C40.6339 0.284166 40.7447 0.263467 39.7806 2.30757C39.0329 3.8927 38.9966 3.9196 37.8498 3.74038C34.7471 3.25525 29.0957 3.25352 25.7994 3.73678C24.6018 3.91229 24.5547 3.8818 23.9195 2.52261C23.2809 1.156 22.8251 0.502433 22.5238 0.521397C22.408 0.52871 22.0622 0.587336 21.7554 0.651788ZM23.4239 21.1865C27.2958 22.9983 28.1615 28.5534 25.0804 31.8148C22.0074 35.0676 16.7304 33.2259 15.7407 28.5553C14.6772 23.5359 19.1917 19.206 23.4239 21.1865ZM44.6387 21.2645C48.4026 23.1246 49.2256 28.596 46.2161 31.7511C43.0062 35.1165 37.8266 33.2704 36.8017 28.3958C35.7558 23.4206 40.4177 19.1784 44.6387 21.2645Z" fill="white"/>
</svg>
