<svg width="24" height="24" viewBox="0 0 24 24" fill="none" xmlns="http://www.w3.org/2000/svg">
<g clip-path="url(#clip0_4098_13068)">
<path d="M16.0884 16.4344H7.91338C8.58238 20.5579 10.1634 23.4544 12.0009 23.4559H12.0024C13.8414 23.4559 15.4209 20.5579 16.0884 16.4344ZM7.91338 7.56642H16.0884C15.4194 3.44142 13.8399 0.544922 12.0009 0.544922C10.1634 0.544922 8.58388 3.44142 7.91338 7.56642ZM8.73088 1.02642C7.10781 1.51048 5.61208 2.34797 4.35112 3.47874C3.09016 4.60951 2.09526 6.00549 1.43787 7.56642H6.42687C6.82887 4.93692 7.60438 2.58642 8.73088 1.02642ZM6.23787 14.9554C6.14142 13.9733 6.09186 12.9872 6.08938 12.0004C6.08938 11.0074 6.14487 10.0144 6.24087 9.04392H0.944375C0.68497 10.0051 0.551356 10.9959 0.546875 11.9914V12.0094C0.546875 13.0309 0.693875 14.0134 0.944375 14.9554H6.23787ZM17.7624 9.04392C17.8584 10.0144 17.9139 11.0074 17.9139 12.0004C17.9139 12.9934 17.8584 13.9879 17.7624 14.9569H23.0559C23.317 13.9966 23.4501 13.0061 23.4519 12.0109V11.9899C23.4487 10.9952 23.3171 10.005 23.0604 9.04392H17.7624ZM1.43787 16.4344C2.09651 17.9956 3.09254 19.3916 4.35449 20.5224C5.61645 21.6531 7.11303 22.4905 8.73688 22.9744C7.61037 21.4129 6.83337 19.0624 6.42687 16.4344H1.43787ZM22.5669 7.56642C21.9082 6.00525 20.9122 4.60921 19.6503 3.47848C18.3883 2.34776 16.8917 1.51037 15.2679 1.02642C16.3944 2.58642 17.1714 4.93692 17.5779 7.56642H22.5669ZM15.2724 22.9744C16.8958 22.4896 18.392 21.6519 19.6538 20.5213C20.9156 19.3907 21.9119 17.9951 22.5714 16.4344H17.5809C17.1759 19.0624 16.4004 21.4129 15.2724 22.9744ZM16.4319 12.0004C16.4319 10.9744 16.3764 9.99192 16.2789 9.04392H7.71987C7.51705 11.0097 7.51705 12.9911 7.71987 14.9569H16.2789C16.3764 14.0104 16.4319 13.0264 16.4319 12.0004Z" fill="#C4C4C4"/>
</g>
<defs>
<clipPath id="clip0_4098_13068">
<rect width="24" height="24" fill="white"/>
</clipPath>
</defs>
</svg>
