<svg width="98" height="24" viewBox="0 0 98 24" fill="none" xmlns="http://www.w3.org/2000/svg">
<path d="M4.93732 8.41536L1.29813 6.5625C1.01347 7.12179 0.771036 7.70812 0.578125 8.30539L4.464 9.56189C4.59099 9.16908 4.75018 8.78356 4.93762 8.41566L4.93732 8.41536Z" fill="white"/>
<path d="M8.02873 5.15016L10.0444 8.62318C10.3388 8.45244 10.6538 8.3212 10.9816 8.2331L9.9384 4.35512C10.2039 4.28373 10.4737 4.22479 10.745 4.18196L10.104 0.148438C9.48392 0.246868 8.86782 0.395425 8.27237 0.589552L9.51886 4.40981C9.1224 4.53923 8.73627 4.69993 8.36442 4.89011L6.53222 1.31381C5.97506 1.59938 5.43612 1.93112 4.92969 2.30084L7.33728 5.59948C7.55906 5.43786 7.79085 5.28809 8.02842 5.14986L8.02873 5.15016Z" fill="white"/>
<path d="M18.8468 8.02634L15.375 10.0439C15.546 10.3379 15.6773 10.6533 15.7657 10.9805L19.6434 9.9354C19.7147 10.2009 19.7737 10.4704 19.8168 10.7414L23.8497 10.0992C23.751 9.4794 23.6021 8.863 23.4074 8.26725L19.5878 9.51616C19.458 9.11971 19.2973 8.73388 19.1069 8.36204L22.6819 6.5274C22.3964 5.97085 22.064 5.43191 21.6943 4.92578L18.3966 7.3349C18.5585 7.55667 18.7083 7.78816 18.8465 8.02604L18.8468 8.02634Z" fill="white"/>
<path d="M17.4348 1.29721C16.8749 1.01286 16.2885 0.770733 15.6919 0.578125L14.4375 4.46461C14.83 4.59129 15.2158 4.75048 15.5843 4.93762L17.4348 1.29691V1.29721Z" fill="white"/>
<path d="M15.9841 5.07879L13.9453 8.61712C14.2406 8.78725 14.5128 8.99566 14.7549 9.23687L20.473 3.49935C20.0295 3.05732 19.5476 2.64689 19.0409 2.2793L16.6825 5.53175C16.4577 5.36892 16.225 5.21732 15.9844 5.07849L15.9841 5.07879Z" fill="white"/>
<path d="M5.07892 8.01461L8.61634 10.0555C8.78647 9.76053 8.99548 9.48802 9.237 9.24559L3.50191 3.52539C3.05958 3.96893 2.64885 4.45045 2.28125 4.95688L5.53249 7.31678C5.36966 7.54129 5.21776 7.774 5.07892 8.01461Z" fill="white"/>
<path d="M13.2396 4.11312L13.8566 0.142785C13.2469 0.048 12.6229 0 12.0016 0H11.9922V8.10046H12.0016C12.3431 8.10046 12.6809 8.14421 13.006 8.23049L14.0535 4.28324C13.7855 4.21215 13.5139 4.15595 13.2396 4.11312Z" fill="white"/>
<path d="M8.23079 10.9936L4.28415 9.94336C4.21276 10.2113 4.15626 10.4829 4.11342 10.7572L0.143696 10.1384C0.0483038 10.7502 0 11.3767 0 11.9998H8.10046C8.10046 11.6577 8.14451 11.319 8.23109 10.9936H8.23079Z" fill="white"/>
<path d="M19.0628 15.584L22.702 17.4369C22.9867 16.8776 23.2291 16.2913 23.422 15.694L19.5361 14.4375C19.4091 14.8303 19.2499 15.2158 19.0625 15.5837L19.0628 15.584Z" fill="white"/>
<path d="M15.9685 18.85L13.9528 15.377C13.6585 15.5477 13.3434 15.6789 13.0156 15.767L14.0589 19.645C13.793 19.7164 13.5236 19.7753 13.2523 19.8182L13.893 23.8514C14.513 23.753 15.1291 23.6044 15.7246 23.4103L14.4781 19.59C14.8749 19.4606 15.2607 19.2999 15.6325 19.1097L17.4647 22.686C18.0219 22.4004 18.5608 22.0687 19.0673 21.699L16.6597 18.4003C16.4379 18.562 16.2061 18.7117 15.9685 18.85Z" fill="white"/>
<path d="M5.15138 15.9737L8.62348 13.9561C8.45244 13.6621 8.3212 13.3467 8.2328 13.0195L4.35512 14.0646C4.28373 13.7991 4.22479 13.5296 4.18165 13.2586L0.148438 13.9008C0.247172 14.5206 0.396033 15.137 0.590767 15.7327L4.41041 14.4838C4.54014 14.8803 4.70085 15.2661 4.89133 15.638L1.31624 17.4726C1.60181 18.0292 1.93416 18.5681 2.30388 19.0742L5.6016 16.6651C5.43968 16.4433 5.28991 16.2118 5.15168 15.974L5.15138 15.9737Z" fill="white"/>
<path d="M6.57031 22.7029C7.13021 22.9873 7.71654 23.2294 8.3132 23.422L9.56758 19.5355C9.17507 19.4088 8.78925 19.2496 8.42074 19.0625L6.57031 22.7032V22.7029Z" fill="white"/>
<path d="M8.02016 18.9217L10.059 15.3834C9.76366 15.2133 9.49146 15.0049 9.24933 14.7637L3.53125 20.5012C3.97479 20.9432 4.45662 21.3536 4.96335 21.7212L7.32173 18.4688C7.54654 18.6316 7.77925 18.7832 8.01986 18.9221L8.02016 18.9217Z" fill="white"/>
<path d="M18.9159 15.9862L15.3785 13.9453C15.2083 14.2403 14.9993 14.5128 14.7578 14.7552L20.4926 20.4757C20.9349 20.0322 21.3457 19.5507 21.7133 19.0443L18.462 16.6844C18.6249 16.4598 18.7768 16.2271 18.9156 15.9865L18.9159 15.9862Z" fill="white"/>
<path d="M10.9928 15.7695L9.94531 19.7168C10.2133 19.7879 10.4849 19.8441 10.7592 19.8869L10.1425 23.8572C10.7522 23.952 11.3762 24 11.9975 24H12.0069V15.8996H11.9975C11.656 15.8996 11.3182 15.8558 10.9931 15.7695H10.9928Z" fill="white"/>
<path d="M15.8963 12C15.8963 12.3421 15.8522 12.6805 15.7656 13.0062L19.7123 14.0564C19.7837 13.7885 19.8402 13.5169 19.883 13.2425L23.853 13.8617C23.9484 13.2498 23.9967 12.6234 23.9967 12.0003H15.8963V12Z" fill="white"/>
<path fill-rule="evenodd" clip-rule="evenodd" d="M34 16V8H37.3612L40.8957 16H39.0006L36.2321 9.73355H35.7335V16H34ZM67.6198 8H69.3533V16H67.6198V8ZM44.4303 8L40.8958 16H42.7912L45.5597 9.73355H46.058V16H47.7915V8H44.4303ZM48.8333 16L52.3678 8H55.5393L59.0738 16H57.1784L56.0269 13.3933H51.8802L50.7287 16H48.8333ZM53.4972 9.73355L52.6462 11.6597H55.2609L54.4099 9.73355H53.4972ZM60.0781 8V16H61.8117V9.73355H62.9523L65.7208 16H67.6158L64.0813 8H60.0781ZM74.3574 9.73355H70.3125V8H80.1359V9.73355H76.091V16H74.3574V9.73355ZM82.8377 8H81.1042V16H88.6483V14.2665H82.8377V8ZM97.7956 8V9.73355H91.3429V11.0177H96.9368V12.7512H91.3429V14.2665H97.7956V16H89.6094V8H97.7956Z" fill="white"/>
</svg>
