<svg width="90" height="101" viewBox="0 0 90 101" fill="none" xmlns="http://www.w3.org/2000/svg">
    <path d="M21.8711 40.2719L44.9994 29.5434V0.218994L21.8711 40.2719Z" fill="#FF596E"/>
    <path d="M45 29.5435V52.9089L68.1283 40.2719L45 29.5435Z" fill="#FF596E"/>
    <path d="M44.9994 29.5435V52.9089L21.8711 40.2719L44.9994 29.5435Z" fill="#800010"/>
    <path d="M68.1283 40.2719L45 29.5434V0.218994L68.1283 40.2719Z" fill="#800010"/>
    <path d="M44.9987 61.9289V86.8323L21.4258 49.0474L44.9987 61.9289Z" fill="#FF596E"/>
    <path d="M45 61.9289V86.8323L68.5729 49.0474L45 61.9289Z" fill="#800010"/>
    <path d="M72.4648 54.7544L77.805 69.7409L89.5007 50.2036L72.4648 54.7544Z" fill="#800010"/>
    <path d="M77.8047 69.7409L89.5004 66.2759V50.2036L77.8047 69.7409Z" fill="#FF596E"/>
    <path d="M89.5002 66.2759L72.4643 94.7406L59.5234 100.281L77.8045 69.7409L89.5002 66.2759Z" fill="#800010"/>
    <path d="M0.5 66.2759L17.5359 94.7406L30.4767 100.281L12.1957 69.7409L0.5 66.2759Z" fill="#FF596E"/>
    <path d="M44.9995 100.281L17.5355 54.7544L12.1953 69.7409L30.4763 100.281H44.9995Z" fill="#800010"/>
    <path d="M17.5359 54.7544L12.1957 69.7409L0.5 50.2036L17.5359 54.7544Z" fill="#FF596E"/>
    <path d="M12.1957 69.7409L0.5 66.2759V50.2036L12.1957 69.7409Z" fill="#800010"/>
    <path d="M45 100.281L72.464 54.7544L77.8042 69.7409L59.5232 100.281H45Z" fill="#FF596E"/>
</svg>
